<svg id="Layer_1" data-name="Layer 1" xmlns="http://www.w3.org/2000/svg" xmlns:xlink="http://www.w3.org/1999/xlink" viewBox="0 0 1286.84 300.19"><defs><style>.cls-1,.cls-8{fill:none;}.cls-2{fill:#777677;}.cls-3{font-size:150px;fill:#787878;font-family:ProductSans-Regular, Product Sans;}.cls-4{letter-spacing:0em;}.cls-5{letter-spacing:-0.01em;}.cls-6{clip-path:url(#clip-path);}.cls-7{clip-path:url(#clip-path-2);}.cls-8{stroke:#787878;stroke-miterlimit:10;stroke-width:35px;}.cls-9{clip-path:url(#clip-path-3);}.cls-10{clip-path:url(#clip-path-4);}</style><clipPath id="clip-path" transform="translate(-513.35 -97.4)"><rect class="cls-1" x="511" y="98.42" width="95" height="298.17"/></clipPath><clipPath id="clip-path-2" transform="translate(-513.35 -97.4)"><rect class="cls-1" x="511" y="98.42" width="95.73" height="301.58"/></clipPath><clipPath id="clip-path-3" transform="translate(-513.35 -97.4)"><rect class="cls-1" x="769.23" y="98.42" width="95" height="298.17" transform="translate(1633.46 495) rotate(180)"/></clipPath><clipPath id="clip-path-4" transform="translate(-513.35 -97.4)"><rect class="cls-1" x="768.5" y="95" width="95.73" height="301.58" transform="translate(1632.73 491.58) rotate(180)"/></clipPath></defs><title>wtm_logoName</title><polygon class="cls-2" points="126.69 227.6 79.13 227.6 150.43 95.85 197.99 95.85 126.69 227.6"/><path class="cls-2" d="M714,195.39q-7.08,12.7-14.14,25.7-5,9.14-9.8,18.21L736.57,325h47.56Z" transform="translate(-513.35 -97.4)"/><path class="cls-2" d="M737,170h47.56l.2,149.41-3.64-6.79c-8-15-12.06-22.45-16.25-30-1.08-2-3.37-6.09-6.42-11.79-1.48-2.76-2.55-4.79-2.85-5.35-2.38-4.5-7.39-13.83-18.59-34.36Q737,200.54,737,170Z" transform="translate(-513.35 -97.4)"/><path class="cls-2" d="M639.67,170H592.1l-.2,149.41,3.64-6.79c8-15,12.06-22.45,16.25-30,1.08-2,3.37-6.09,6.42-11.79,1.48-2.76,2.55-4.79,2.85-5.35,2.38-4.5,7.39-13.83,18.59-34.36Q639.66,200.54,639.67,170Z" transform="translate(-513.35 -97.4)"/><text class="cls-3" transform="translate(400.21 201.19)">WTM I<tspan class="cls-4" x="412.19" y="0">s</tspan><tspan class="cls-5" x="479.69" y="0">t</tspan><tspan x="531.29" y="0">an</tspan><tspan class="cls-4" x="689.09" y="0">b</tspan><tspan x="774.74" y="0">ul</tspan></text><g class="cls-6"><g class="cls-7"><path class="cls-8" d="M533.31,379.5a2.27,2.27,0,0,1-2.46-2v-260a2.27,2.27,0,0,1,2.46-2l90.78.33q0,70.08,0,140.17,0,62,0,124Z" transform="translate(-513.35 -97.4)"/></g></g><g class="cls-9"><g class="cls-10"><path class="cls-8" d="M841.92,115.5a2.27,2.27,0,0,1,2.46,2v260a2.27,2.27,0,0,1-2.46,2l-90.78-.33q0-70.08,0-140.17,0-62,0-124Z" transform="translate(-513.35 -97.4)"/></g></g></svg>